<?xml version="1.0" encoding="UTF-8" standalone="no"?>
<svg
   xmlns:dc="http://purl.org/dc/elements/1.1/"
   xmlns:cc="http://creativecommons.org/ns#"
   xmlns:rdf="http://www.w3.org/1999/02/22-rdf-syntax-ns#"
   xmlns:svg="http://www.w3.org/2000/svg"
   xmlns="http://www.w3.org/2000/svg"
   viewBox="0 0 377.95334 170"
   height="170"
   width="377.95334"
   xml:space="preserve"
   id="svg2"
   version="1.1"><metadata
     id="metadata8"><rdf:RDF><cc:Work
         rdf:about=""><dc:format>image/svg+xml</dc:format><dc:type
           rdf:resource="http://purl.org/dc/dcmitype/StillImage" /></cc:Work></rdf:RDF></metadata><defs
     id="defs6" /><g
     transform="matrix(1.3333333,0,0,-1.3333333,0,132.04427)"
     id="g10"><path
       id="path12"
       style="fill:#1d1d1b;fill-opacity:1;fill-rule:nonzero;stroke:none"
       d="m 52.222,43.0812 c -1.117,12.311 -8.765,17.719 -18.463,17.719 -10.072,0 -17.904,-6.341 -19.584,-17.719 z M 0,34.8762 c 0,19.023 11.937,36.367 33.573,36.367 19.396,0 32.45,-11.935 32.45,-35.062 v -3.171 H 13.431 c 0.187,-13.614 8.018,-22.567 20.888,-22.567 11.562,0 17.53,6.156 18.09,13.242 H 65.65 C 63.972,9.6982 53.156,2e-4 33.945,2e-4 11.937,2e-4 0,15.6652 0,34.8762" /><path
       id="path14"
       style="fill:#1d1d1b;fill-opacity:1;fill-rule:nonzero;stroke:none"
       d="m 68.2542,21.635 h 13.241 c 0.56,-7.646 6.717,-11.191 17.905,-11.191 10.6298,0 15.4798,4.476 15.4798,10.631 0,5.595 -3.169,8.206 -13.614,9.325 l -9.3248,0.933 c -14.548,1.492 -21.634,7.274 -21.634,18.836 0,14.174 11.188,21.074 26.855,21.074 16.0398,0 27.7898,-5.967 28.7228,-20.142 h -12.683 c -0.933,7.088 -6.527,9.885 -16.2248,9.885 -9.699,0 -14.735,-3.73 -14.735,-9.511 0,-5.41 3.358,-7.647 11.937,-8.579 l 9.3248,-0.932 C 120.29,40.283 127.376,34.69 127.376,21.635 127.376,7.834 116.188,0 98.6552,0 80.3782,0 68.6282,7.834 68.2542,21.635" /><path
       id="path16"
       style="fill:#1d1d1b;fill-opacity:1;fill-rule:nonzero;stroke:none"
       d="m 135.02,69.1922 h 12.867 V 1.6782 H 135.02 Z m -0.561,29.841 h 13.988 v -14.36 h -13.988 z" /><path
       id="path18"
       style="fill:#1d1d1b;fill-opacity:1;fill-rule:nonzero;stroke:none"
       d="m 207.381,43.0812 c -1.121,12.311 -8.767,17.719 -18.465,17.719 -10.07,0 -17.904,-6.341 -19.583,-17.719 z m -52.222,-8.205 c 0,19.023 11.936,36.367 33.573,36.367 19.394,0 32.45,-11.935 32.45,-35.062 v -3.171 h -52.594 c 0.186,-13.614 8.02,-22.567 20.888,-22.567 11.562,0 17.531,6.156 18.089,13.242 h 13.243 C 219.131,9.6982 208.312,2e-4 189.102,2e-4 c -22.007,0 -33.943,15.665 -33.943,34.876" /><path
       id="path20"
       style="fill:#1d1d1b;fill-opacity:1;fill-rule:nonzero;stroke:none"
       d="m 270.595,22.3801 v 9.513 h -13.613 c -9.138,0 -18.836,-0.187 -18.836,-10.818 0,-8.019 5.595,-10.632 12.495,-10.632 9.885,0 17.346,5.97 19.954,11.937 m -46.064,-1.491 c 0,18.649 16.039,21.261 32.078,21.075 h 13.986 v 4.289 c 0,10.07 -4.848,14.547 -14.36,14.547 -6.714,0 -14.359,-2.052 -15.852,-10.818 h -13.241 c 1.865,15.667 14.92,21.261 28.722,21.261 16.039,0 27.601,-8.206 27.601,-24.245 V 1.6791 h -11.936 l -0.56,8.764 h -0.56 C 266.866,4.4771 259.592,1e-4 250.268,1e-4 c -15.292,0 -25.737,6.715 -25.737,20.889" /></g></svg>