<?xml version="1.0" encoding="UTF-8" standalone="no"?>
<!-- Created with Inkscape (http://www.inkscape.org/) -->

<svg
   version="1.1"
   id="svg1"
   width="444.38934"
   height="171.61333"
   viewBox="0 0 444.38934 171.61333"
   xmlns="http://www.w3.org/2000/svg"
   xmlns:svg="http://www.w3.org/2000/svg">
  <defs
     id="defs1">
    <clipPath
       clipPathUnits="userSpaceOnUse"
       id="clipPath2">
      <path
         d="m 14.1734,0 c 0,15.6557 -12.6911,28.3468 -28.34679,28.3468 C -29.8291,28.3468 -42.5202,15.6557 -42.5202,0 c 0,-15.6557 12.6911,-28.3468 28.34681,-28.3468 15.65569,0 28.34679,12.6911 28.34679,28.3468 z"
         id="path2" />
    </clipPath>
    <clipPath
       clipPathUnits="userSpaceOnUse"
       id="clipPath19">
      <path
         d="m -102.04953,-5.66934 v -44.78861 c 0,-3.13112 2.53823,-5.66934 5.66934,-5.66934 H 96.38019 c 3.13111,0 5.66934,2.53822 5.66934,5.66934 V -5.66934 C 102.04953,-2.53822 99.5113,0 96.38019,0 H -96.38019 c -3.13111,0 -5.66934,-2.53822 -5.66934,-5.66934 z"
         id="path19" />
    </clipPath>
  </defs>
  <g
     id="g1">
    <path
       id="path1"
       d="m 42.5202,0 c 0,15.6557 -12.6911,28.3468 -28.34681,28.3468 C -1.4823,28.3468 -14.1734,15.6557 -14.1734,0 c 0,-15.6557 12.6911,-28.3468 28.34679,-28.3468 15.65571,0 28.34681,12.6911 28.34681,28.3468 z"
       style="fill:#00a2c7;fill-opacity:0.3;fill-rule:nonzero;stroke:none"
       transform="matrix(1.3333333,0,0,-1.3333333,78.246667,93.366667)"
       clip-path="url(#clipPath2)" />
    <path
       id="path3"
       d="M 28.3468,-14.17339 C 28.3468,1.4823 15.6557,14.1734 0,14.1734 c -15.6557,0 -28.3468,-12.6911 -28.3468,-28.34679 0,-15.65571 12.6911,-28.34681 28.3468,-28.34681 15.6557,0 28.3468,12.6911 28.3468,28.34681 z m 0,28.34678 C 28.3468,29.8291 15.6557,42.5202 0,42.5202 c -15.6557,0 -28.3468,-12.6911 -28.3468,-28.34681 0,-15.65569 12.6911,-28.34679 28.3468,-28.34679 15.6557,0 28.3468,12.6911 28.3468,28.34679 z"
       style="fill:#5b5bd6;fill-opacity:0.3;fill-rule:nonzero;stroke:none"
       transform="matrix(1.3333333,0,0,-1.3333333,78.246667,93.366667)" />
    <path
       id="path4"
       d="M 28.3468,-14.17339 C 28.3468,1.4823 15.6557,14.1734 0,14.1734 c -15.6557,0 -28.3468,-12.6911 -28.3468,-28.34679 0,-15.65571 12.6911,-28.34681 28.3468,-28.34681 15.6557,0 28.3468,12.6911 28.3468,28.34681 z"
       style="fill:none;stroke:#5b5bd6;stroke-width:1.19553;stroke-linecap:butt;stroke-linejoin:miter;stroke-miterlimit:10;stroke-dasharray:none;stroke-opacity:1"
       transform="matrix(1.3333333,0,0,-1.3333333,78.246667,93.366667)" />
    <path
       id="path5"
       d="M 28.3468,14.17339 C 28.3468,29.8291 15.6557,42.5202 0,42.5202 c -15.6557,0 -28.3468,-12.6911 -28.3468,-28.34681 0,-15.65569 12.6911,-28.34679 28.3468,-28.34679 15.6557,0 28.3468,12.6911 28.3468,28.34679 z"
       style="fill:none;stroke:#5b5bd6;stroke-width:1.19553;stroke-linecap:butt;stroke-linejoin:miter;stroke-miterlimit:10;stroke-dasharray:none;stroke-opacity:1"
       transform="matrix(1.3333333,0,0,-1.3333333,78.246667,93.366667)" />
    <path
       id="path6"
       d="m 14.1734,0 c 0,15.6557 -12.6911,28.3468 -28.34679,28.3468 C -29.8291,28.3468 -42.5202,15.6557 -42.5202,0 c 0,-15.6557 12.6911,-28.3468 28.34681,-28.3468 15.65569,0 28.34679,12.6911 28.34679,28.3468 z"
       style="fill:none;stroke:#00a2c7;stroke-width:1.19553;stroke-linecap:butt;stroke-linejoin:miter;stroke-miterlimit:10;stroke-dasharray:none;stroke-opacity:1"
       transform="matrix(1.3333333,0,0,-1.3333333,78.246667,93.366667)" />
    <path
       id="path7"
       d="m 42.5202,0 c 0,15.6557 -12.6911,28.3468 -28.34681,28.3468 C -1.4823,28.3468 -14.1734,15.6557 -14.1734,0 c 0,-15.6557 12.6911,-28.3468 28.34679,-28.3468 15.65571,0 28.34681,12.6911 28.34681,28.3468 z"
       style="fill:none;stroke:#00a2c7;stroke-width:1.19553;stroke-linecap:butt;stroke-linejoin:miter;stroke-miterlimit:10;stroke-dasharray:none;stroke-opacity:1"
       transform="matrix(1.3333333,0,0,-1.3333333,78.246667,93.366667)" />
    <path
       id="path8"
       d="m 7.1824375,-0.20046094 c 0,-0.10546875 -0.1054688,-0.10546875 -0.234375,-0.10546875 -0.609375,0 -0.609375,-0.0703125 -0.6445313,-0.36328125 L 5.6941562,-6.8918672 c -0.011719,-0.1992187 -0.011719,-0.2460937 -0.1875,-0.2460937 -0.1640625,0 -0.1992187,0.070312 -0.2578125,0.1757812 l -3.46875,5.8125 c -0.3984375,0.66796876 -0.7851562,0.80859376 -1.21874995,0.84375001 -0.12890625,0 -0.2109375,0 -0.2109375,0.19921875 0,0.05859375 0.046875,0.10546875 0.12890625,0.10546875 0.26953125,0 0.5742187,-0.03515625 0.8554687,-0.03515625 0.328125,0 0.6796875,0.03515625 0.9960938,0.03515625 0.058594,0 0.1875,0 0.1875,-0.1875 0,-0.1171875 -0.09375,-0.1171875 -0.1640625,-0.1171875 -0.2226563,-0.0234375 -0.4570313,-0.10546875 -0.4570313,-0.3515625 0,-0.1171875 0.058594,-0.234375 0.1289063,-0.37500001 0.070312,-0.1171875 0.082031,-0.1171875 0.7617187,-1.265625 H 5.284 c 0.023437,0.1992188 0.1640625,1.55859376 0.1640625,1.66406251 0,0.29296875 -0.515625,0.328125 -0.7148438,0.328125 -0.140625,0 -0.2460937,0 -0.2460937,0.19921875 0,0.10546875 0.140625,0.10546875 0.140625,0.10546875 0.4101562,0 0.84375,-0.03515625 1.2539062,-0.03515625 0.2460938,0 0.8671875,0.03515625 1.125,0.03515625 0.058594,0 0.1757813,0 0.1757813,-0.19921875 z M 5.2605625,-2.6145234 H 2.9754062 l 1.96875,-3.28125 z m 0,0"
       style="fill:#1c2024;fill-opacity:1;fill-rule:nonzero;stroke:none"
       aria-label="A"
       transform="matrix(1.3333333,0,0,1.3333333,1.4546667,97.904)" />
    <path
       id="path9"
       d="m 6.9967187,-2.1574922 c 0,-0.7148437 -0.5859375,-1.2890625 -1.546875,-1.3945312 1.03125,-0.1992188 2.0859375,-0.9375 2.0859375,-1.875 0,-0.7382813 -0.65625,-1.3828125 -1.8515625,-1.3828125 H 2.3326562 c -0.1875,0 -0.2929687,0 -0.2929687,0.1992187 0,0.1171875 0.09375,0.1171875 0.28125,0.1171875 0,0 0.2109375,0 0.375,0.011719 0.1875,0.023437 0.2695312,0.035156 0.2695312,0.1640625 0,0.035156 -0.011719,0.070312 -0.035156,0.1875 L 1.594375,-0.77467969 c -0.09375,0.38671875 -0.1171875,0.46875 -0.90234375,0.46875 -0.17578125,0 -0.26953125,0 -0.26953125,0.19921875 0,0.10546875 0.0820313,0.10546875 0.26953125,0.10546875 H 4.2428125 c 1.5703125,0 2.7539062,-1.17187501 2.7539062,-2.15625001 z m -0.375,-3.3164062 c 0,0.8789062 -0.8554687,1.828125 -2.0742187,1.828125 H 3.094375 l 0.6210937,-2.4726563 c 0.09375,-0.3515625 0.1054688,-0.375 0.5390625,-0.375 h 1.2890625 c 0.8671875,0 1.078125,0.5859375 1.078125,1.0195313 z m -0.5507812,3.2109375 c 0,0.984375 -0.890625,1.95703121 -2.0625,1.95703121 h -1.359375 c -0.140625,0 -0.1523438,0 -0.2226563,-0.0117188 -0.09375,-0.0117187 -0.1289062,-0.0234374 -0.1289062,-0.1054687 0,-0.0234375 0,-0.046875 0.058594,-0.22265625 L 3.0357812,-3.4231172 H 4.9225 c 0.9609375,0 1.1484375,0.7265625 1.1484375,1.1601563 z m 0,0"
       style="fill:#1c2024;fill-opacity:1;fill-rule:nonzero;stroke:none"
       aria-label="B"
       transform="matrix(1.3333333,0,0,1.3333333,144.68667,97.904)" />
    <path
       id="path10"
       d="m 6.4438906,-2.3903125 c 0,-0.1054687 -0.1171875,-0.1054687 -0.1171875,-0.1054687 -0.058594,0 -0.1171875,0.023437 -0.1289062,0.1054687 -0.09375,0.2929688 -0.3164063,0.9960938 -1.0078125,1.5703125 -0.6914063,0.5625 -1.3125,0.7265625 -1.8398438,0.7265625 -0.890625,0 -1.9453125,-0.515625 -1.9453125,-2.0625 0,-0.5742187 0.2109375,-2.1914062 1.2070313,-3.3515625 0.609375,-0.703125 1.5351562,-1.2070312 2.4257812,-1.2070312 1.0195313,0 1.6054688,0.7734375 1.6054688,1.921875 0,0.3984375 -0.035156,0.4101562 -0.035156,0.5039062 0,0.1054688 0.1171875,0.1054688 0.1523438,0.1054688 0.1289062,0 0.1289062,-0.023437 0.1757812,-0.1992188 l 0.6328125,-2.5429687 c 0,-0.023437 -0.023437,-0.09375 -0.1054687,-0.09375 -0.035156,0 -0.046875,0.011719 -0.1523438,0.1171875 l -0.703125,0.7617187 c -0.082031,-0.140625 -0.5390625,-0.8789062 -1.6523437,-0.8789062 -2.2148438,0 -4.45312503,2.203125 -4.45312503,4.5117187 0,1.640625 1.17187503,2.73046875 2.69531253,2.73046875 0.8671875,0 1.6171875,-0.3984375 2.1445312,-0.85546875 0.9375,-0.8203125 1.1015625,-1.7226562 1.1015622,-1.7578125 z m 0,0"
       style="fill:#1c2024;fill-opacity:1;fill-rule:nonzero;stroke:none"
       aria-label="C"
       transform="matrix(1.3333333,0,0,1.3333333,73.025333,26.093333)" />
    <path
       id="path11"
       d="m 8.0027812,-4.2899297 c 0,-1.3945312 -0.84375,-2.5195312 -2.3320312,-2.5195312 H 2.3191875 c -0.1875,0 -0.2929688,0 -0.2929688,0.1992187 0,0.1171875 0.082031,0.1171875 0.28125,0.1171875 0.1289063,0 0.3164063,0.011719 0.4335938,0.011719 0.1523437,0.023437 0.2109375,0.058594 0.2109375,0.1640625 0,0.035156 0,0.070312 -0.035156,0.1875 l -1.3359375,5.35546871 c -0.09375,0.38671875 -0.1171875,0.46875 -0.9023437,0.46875 -0.17578125,0 -0.28125,0 -0.28125,0.1875 0,0.1171875025 0.09375,0.1171875025 0.28125,0.1171875025 h 3.2929687 c 2.0742188,0 4.03125,-2.0976562125 4.0312497,-4.2890627125 z M 7.1355937,-4.6532109 c 0,0.4921875 -0.1992187,2.1210937 -1.0429687,3.2226562 -0.28125,0.3632813 -1.078125,1.12500001 -2.296875,1.12500001 h -1.125 c -0.140625,0 -0.1640625,0 -0.2226563,-0.0117188 -0.09375,-0.0117188 -0.1289062,-0.0234375 -0.1289062,-0.10546875 0,-0.0234375 0,-0.046875 0.046875,-0.22265625 L 3.7371562,-6.1180547 c 0.082031,-0.3515625 0.1054688,-0.375 0.5390625,-0.375 H 5.342625 c 0.9726562,0 1.7929687,0.5273438 1.7929687,1.8398438 z m 0,0"
       style="fill:#1c2024;fill-opacity:1;fill-rule:nonzero;stroke:none"
       aria-label="D"
       transform="matrix(1.3333333,0,0,1.3333333,72.564,169.716)" />
    <g
       id="g11"
       aria-label="A∩B"
       transform="matrix(1.3333333,0,0,1.3333333,2.4853333,39.109333)">
      <path
         id="path12"
         d="m 7.182875,-0.1991875 c 0,-0.10546875 -0.1054688,-0.10546875 -0.234375,-0.10546875 -0.609375,0 -0.609375,-0.0703125 -0.6445313,-0.36328125 l -0.609375,-6.2226562 c -0.011719,-0.1992188 -0.011719,-0.2460938 -0.1875,-0.2460938 -0.1640625,0 -0.1992187,0.070312 -0.2578125,0.1757813 l -3.46875,5.8125 c -0.3984375,0.6679687 -0.7851562,0.8085937 -1.21874995,0.84374995 -0.12890625,0 -0.2109375,0 -0.2109375,0.19921875 0,0.05859375 0.046875,0.10546875 0.12890625,0.10546875 0.26953125,0 0.5742187,-0.03515625 0.8554687,-0.03515625 0.328125,0 0.6796875,0.03515625 0.9960938,0.03515625 0.058594,0 0.1875,0 0.1875,-0.1875 0,-0.1171875 -0.09375,-0.1171875 -0.1640625,-0.1171875 -0.2226563,-0.0234375 -0.4570313,-0.10546875 -0.4570313,-0.3515625 0,-0.1171875 0.058594,-0.234375 0.1289063,-0.37499995 0.070312,-0.1171875 0.082031,-0.1171875 0.7617187,-1.265625 H 5.2844375 C 5.307875,-2.097625 5.4485,-0.73825 5.4485,-0.63278125 c 0,0.29296875 -0.515625,0.328125 -0.7148438,0.328125 -0.140625,0 -0.2460937,0 -0.2460937,0.19921875 0,0.10546875 0.140625,0.10546875 0.140625,0.10546875 0.4101562,0 0.84375,-0.03515625 1.2539062,-0.03515625 0.2460938,0 0.8671875,0.03515625 1.125,0.03515625 0.058594,0 0.1757813,0 0.1757813,-0.19921875 z M 5.261,-2.61325 H 2.9758437 l 1.96875,-3.28125 z m 0,0"
         style="fill:#107d98;fill-opacity:1;fill-rule:nonzero;stroke:none" />
      <path
         id="path13"
         d="m 14.369398,-3.2695 v 2.89453125 c 0,0.1171875 0.09375,0.22265625 0.222657,0.22265625 0.128906,0 0.234375,-0.10546875 0.234375,-0.22265625 V -3.2695 c 0,-1.0195312 -1.066407,-1.6757812 -2.402344,-1.6757812 -1.101563,0 -2.390625,0.515625 -2.390625,1.6757812 v 2.89453125 c 0,0.1171875 0.105469,0.22265625 0.234375,0.22265625 0.128906,0 0.222656,-0.10546875 0.222656,-0.22265625 V -3.2695 c 0,-0.7734375 0.925781,-1.21875 1.933594,-1.21875 1.054687,0 1.945312,0.46875 1.945312,1.21875 z m 0,0"
         style="fill:#107d98;fill-opacity:1;fill-rule:nonzero;stroke:none" />
      <path
         id="path14"
         d="m 24.38893,-2.1562187 c 0,-0.7148438 -0.585938,-1.2890625 -1.546875,-1.3945313 1.03125,-0.1992187 2.085937,-0.9375 2.085937,-1.875 0,-0.7382812 -0.65625,-1.3828125 -1.851562,-1.3828125 h -3.351563 c -0.1875,0 -0.292969,0 -0.292969,0.1992188 0,0.1171875 0.09375,0.1171875 0.28125,0.1171875 0,0 0.210938,0 0.375,0.011719 0.1875,0.023437 0.269532,0.035156 0.269532,0.1640625 0,0.035156 -0.01172,0.070312 -0.03516,0.1875 l -1.335937,5.35546875 c -0.09375,0.38671875 -0.117188,0.46875 -0.902344,0.46875 -0.175781,0 -0.269531,0 -0.269531,0.19921875 0,0.10546875 0.08203,0.10546875 0.269531,0.10546875 h 3.550781 c 1.570313,0 2.753907,-1.17187495 2.753907,-2.15624995 z m -0.375,-3.3164063 c 0,0.8789063 -0.855469,1.828125 -2.074219,1.828125 h -1.453125 l 0.621094,-2.4726562 c 0.09375,-0.3515625 0.105468,-0.375 0.539062,-0.375 h 1.289063 c 0.867187,0 1.078125,0.5859375 1.078125,1.0195312 z m -0.550782,3.2109375 c 0,0.984375 -0.890625,1.95703125 -2.0625,1.95703125 h -1.359375 c -0.140625,0 -0.152343,0 -0.222656,-0.0117188 -0.09375,-0.0117188 -0.128906,-0.0234375 -0.128906,-0.10546875 0,-0.0234375 0,-0.046875 0.05859,-0.22265625 l 0.679687,-2.77734375 h 1.886719 c 0.960937,0 1.148437,0.7265625 1.148437,1.1601562 z m 0,0"
         style="fill:#107d98;fill-opacity:1;fill-rule:nonzero;stroke:none" />
    </g>
    <g
       id="g14"
       aria-label="C∪D"
       transform="matrix(1.3333333,0,0,1.3333333,119.52267,39.109333)">
      <path
         id="path15"
         d="m 6.4458906,-2.3905937 c 0,-0.1054688 -0.1171875,-0.1054688 -0.1171875,-0.1054688 -0.058594,0 -0.1171875,0.023437 -0.1289062,0.1054688 -0.09375,0.2929687 -0.3164063,0.9960937 -1.0078125,1.57031245 -0.6914063,0.5625 -1.3125,0.7265625 -1.8398438,0.7265625 -0.890625,0 -1.9453125,-0.515625 -1.9453125,-2.06249995 0,-0.5742188 0.2109375,-2.1914063 1.2070313,-3.3515625 0.609375,-0.703125 1.5351562,-1.2070313 2.4257812,-1.2070313 1.0195313,0 1.6054688,0.7734375 1.6054688,1.921875 0,0.3984375 -0.035156,0.4101563 -0.035156,0.5039063 0,0.1054687 0.1171875,0.1054687 0.1523438,0.1054687 0.1289062,0 0.1289062,-0.023437 0.1757812,-0.1992187 L 7.5708906,-6.92575 c 0,-0.023437 -0.023437,-0.09375 -0.1054687,-0.09375 -0.035156,0 -0.046875,0.011719 -0.1523438,0.1171875 l -0.703125,0.7617188 C 6.5279219,-6.2812187 6.0708906,-7.0195 4.9576094,-7.0195 c -2.2148438,0 -4.45312502,2.203125 -4.45312502,4.5117188 0,1.64062495 1.17187502,2.7304687 2.69531252,2.7304687 0.8671875,0 1.6171875,-0.3984375 2.1445312,-0.85546875 0.9375,-0.82031245 1.1015625,-1.72265625 1.1015625,-1.75781245 z m 0,0"
         style="fill:#5753c6;fill-opacity:1;fill-rule:nonzero;stroke:none" />
      <path
         id="path16"
         d="m 10.85507,-1.8280937 v -2.8828125 c 0,-0.1171875 -0.09375,-0.234375 -0.222656,-0.234375 -0.128906,0 -0.234375,0.1171875 -0.234375,0.234375 v 2.8828125 c 0,1.03124995 1.066406,1.6757812 2.390625,1.6757812 1.113281,0 2.402344,-0.50390625 2.402344,-1.6757812 v -2.8828125 c 0,-0.1171875 -0.105469,-0.234375 -0.234375,-0.234375 -0.128906,0 -0.222656,0.1171875 -0.222656,0.234375 v 2.8828125 c 0,0.7851562 -0.9375,1.21874995 -1.945313,1.21874995 -1.042969,0 -1.933594,-0.45703125 -1.933594,-1.21874995 z m 0,0"
         style="fill:#5753c6;fill-opacity:1;fill-rule:nonzero;stroke:none" />
      <path
         id="path17"
         d="m 25.76425,-4.2890312 c 0,-1.3945313 -0.84375,-2.5195313 -2.332031,-2.5195313 h -3.351563 c -0.1875,0 -0.292968,0 -0.292968,0.1992188 0,0.1171875 0.08203,0.1171875 0.28125,0.1171875 0.128906,0 0.316406,0.011719 0.433593,0.011719 0.152344,0.023437 0.210938,0.058594 0.210938,0.1640625 0,0.035156 0,0.070312 -0.03516,0.1875 l -1.335938,5.35546875 c -0.09375,0.38671875 -0.117187,0.46875 -0.902344,0.46875 -0.175781,0 -0.28125,0 -0.28125,0.1875 0,0.1171875 0.09375,0.1171875 0.28125,0.1171875 H 21.733 c 2.074219,0 4.03125,-2.09765625 4.03125,-4.28906275 z m -0.867187,-0.3632813 c 0,0.4921875 -0.199219,2.1210938 -1.042969,3.2226563 -0.28125,0.3632812 -1.078125,1.12499995 -2.296875,1.12499995 h -1.125 c -0.140625,0 -0.164063,0 -0.222656,-0.0117188 -0.09375,-0.0117188 -0.128907,-0.0234375 -0.128907,-0.10546875 0,-0.0234375 0,-0.046875 0.04687,-0.22265625 L 21.49862,-6.1171562 c 0.08203,-0.3515625 0.105469,-0.375 0.539063,-0.375 h 1.066406 c 0.972656,0 1.792969,0.5273437 1.792969,1.8398437 z m 0,0"
         style="fill:#5753c6;fill-opacity:1;fill-rule:nonzero;stroke:none" />
    </g>
    <path
       id="path18"
       d="m 0,50.45795 v -100.9159 c 0,-3.13112 2.53822,-5.66934 5.66934,-5.66934 h 90.71085 c 3.13111,0 5.66934,2.53822 5.66934,5.66934 v 100.9159 c 0,3.13112 -2.53823,5.66934 -5.66934,5.66934 H 5.66934 C 2.53822,56.12729 0,53.58907 0,50.45795 Z"
       style="fill:#00a2c7;fill-opacity:0.3;fill-rule:nonzero;stroke:none"
       transform="matrix(1.3333333,0,0,-1.3333333,305.668,93.366667)"
       clip-path="url(#clipPath19)" />
    <path
       id="path20"
       d="m 24.05333,24.05333 c 13.28404,13.28404 34.8226,13.28404 48.10666,0 13.28404,-13.28406 13.28404,-34.8226 0,-48.10666 -13.28406,-13.28404 -34.82262,-13.28404 -48.10666,0 -13.28406,13.28406 -34.8226,13.28406 -48.10666,0 -13.28404,-13.28404 -34.8226,-13.28404 -48.10666,0 -13.28404,13.28406 -13.28404,34.8226 0,48.10666 13.28406,13.28404 34.82262,13.28404 48.10666,0 13.28406,-13.28406 34.8226,-13.28406 48.10666,0 z M 0,34.0165 C 18.78702,34.0165 34.0165,18.78702 34.0165,0 34.0165,-18.78702 18.78702,-34.0165 0,-34.0165 c -18.78702,0 -34.0165,15.22948 -34.0165,34.0165 0,18.78702 15.22948,34.0165 34.0165,34.0165 z"
       style="fill:#5b5bd6;fill-opacity:0.3;fill-rule:nonzero;stroke:none"
       transform="matrix(1.3333333,0,0,-1.3333333,305.668,93.366667)" />
    <path
       id="path21"
       d="M 34.01651,0 C 34.01651,18.78703 18.78703,34.01651 0,34.01651 -18.78703,34.01651 -34.01651,18.78703 -34.01651,0 c 0,-18.78703 15.22948,-34.01651 34.01651,-34.01651 18.78703,0 34.01651,15.22948 34.01651,34.01651 z"
       style="fill:none;stroke:#5b5bd6;stroke-width:1.19553;stroke-linecap:butt;stroke-linejoin:miter;stroke-miterlimit:10;stroke-dasharray:none;stroke-opacity:1"
       transform="matrix(1.3333333,0,0,-1.3333333,305.668,93.366667)" />
    <path
       id="path22"
       d="m 24.05333,24.05333 c 13.28404,13.28404 34.8226,13.28404 48.10666,0 13.28404,-13.28406 13.28404,-34.8226 0,-48.10666 -13.28406,-13.28404 -34.82262,-13.28404 -48.10666,0 -13.28406,13.28406 -34.8226,13.28406 -48.10666,0 -13.28404,-13.28404 -34.8226,-13.28404 -48.10666,0 -13.28404,13.28406 -13.28404,34.8226 0,48.10666 13.28406,13.28404 34.82262,13.28404 48.10666,0 13.28406,-13.28406 34.8226,-13.28406 48.10666,0 z"
       style="fill:none;stroke:#5b5bd6;stroke-width:1.19553;stroke-linecap:butt;stroke-linejoin:miter;stroke-miterlimit:10;stroke-dasharray:none;stroke-opacity:1"
       transform="matrix(1.3333333,0,0,-1.3333333,305.668,93.366667)" />
    <path
       id="path23"
       d="m -102.04953,-5.66934 v -44.78861 c 0,-3.13112 2.53823,-5.66934 5.66934,-5.66934 H 96.38019 c 3.13111,0 5.66934,2.53822 5.66934,5.66934 V -5.66934 C 102.04953,-2.53822 99.5113,0 96.38019,0 H -96.38019 c -3.13111,0 -5.66934,-2.53822 -5.66934,-5.66934 z"
       style="fill:none;stroke:#00a2c7;stroke-width:1.19553;stroke-linecap:butt;stroke-linejoin:miter;stroke-miterlimit:10;stroke-dasharray:none;stroke-opacity:1"
       transform="matrix(1.3333333,0,0,-1.3333333,305.668,93.366667)" />
    <path
       id="path24"
       d="m 0,50.45795 v -100.9159 c 0,-3.13112 2.53822,-5.66934 5.66934,-5.66934 h 90.71085 c 3.13111,0 5.66934,2.53822 5.66934,5.66934 v 100.9159 c 0,3.13112 -2.53823,5.66934 -5.66934,5.66934 H 5.66934 C 2.53822,56.12729 0,53.58907 0,50.45795 Z"
       style="fill:none;stroke:#00a2c7;stroke-width:1.19553;stroke-linecap:butt;stroke-linejoin:miter;stroke-miterlimit:10;stroke-dasharray:none;stroke-opacity:1"
       transform="matrix(1.3333333,0,0,-1.3333333,305.668,93.366667)" />
    <path
       id="path25"
       d="m 7.1826562,-0.20026562 c 0,-0.10546875 -0.1054687,-0.10546875 -0.234375,-0.10546875 -0.609375,0 -0.609375,-0.0703125 -0.6445312,-0.36328125 L 5.694375,-6.8916719 c -0.011719,-0.1992187 -0.011719,-0.2460937 -0.1875,-0.2460937 -0.1640625,0 -0.1992188,0.070312 -0.2578125,0.1757812 l -3.46875,5.8125 c -0.3984375,0.66796878 -0.78515625,0.80859378 -1.21875,0.84375003 -0.12890625,0 -0.2109375,0 -0.2109375,0.19921875 0,0.05859375 0.046875,0.10546875 0.12890625,0.10546875 0.26953125,0 0.57421875,-0.03515625 0.85546875,-0.03515625 0.328125,0 0.6796875,0.03515625 0.9960937,0.03515625 0.058594,0 0.1875,0 0.1875,-0.1875 0,-0.1171875 -0.09375,-0.1171875 -0.1640625,-0.1171875 C 2.131875,-0.32917187 1.8975,-0.41120312 1.8975,-0.65729687 c 0,-0.1171875 0.058594,-0.234375 0.1289062,-0.37500003 0.070312,-0.1171875 0.082031,-0.1171875 0.7617188,-1.265625 h 2.4960937 c 0.023437,0.1992188 0.1640625,1.55859378 0.1640625,1.66406253 0,0.29296875 -0.515625,0.328125 -0.7148437,0.328125 -0.140625,0 -0.2460938,0 -0.2460938,0.19921875 0,0.10546875 0.140625,0.10546875 0.140625,0.10546875 0.4101563,0 0.84375,-0.03515625 1.2539063,-0.03515625 0.2460937,0 0.8671875,0.03515625 1.125,0.03515625 0.058594,0 0.1757812,0 0.1757812,-0.19921875 z M 5.2607812,-2.6143281 H 2.975625 l 1.96875,-3.28125 z m 0,0"
       style="fill:#1c2024;fill-opacity:1;fill-rule:nonzero;stroke:none"
       aria-label="A"
       transform="matrix(1.3333333,0,0,1.3333333,368.72,13.837333)" />
    <path
       id="path26"
       d="m 6.9950703,-2.1550859 c 0,-0.7148438 -0.5859375,-1.2890625 -1.546875,-1.3945313 1.03125,-0.1992187 2.0859375,-0.9375 2.0859375,-1.875 0,-0.7382812 -0.65625,-1.3828125 -1.8515625,-1.3828125 H 2.3310078 c -0.1875,0 -0.2929687,0 -0.2929687,0.1992188 0,0.1171875 0.09375,0.1171875 0.28125,0.1171875 0,0 0.2109375,0 0.375,0.011719 0.1875,0.023437 0.2695312,0.035156 0.2695312,0.1640625 0,0.035156 -0.011719,0.070312 -0.035156,0.1875 l -1.3359375,5.35546876 c -0.09375,0.38671875 -0.1171875,0.46875 -0.90234379,0.46875 -0.17578125,0 -0.26953125,0 -0.26953125,0.19921875 0,0.10546875 0.0820313,0.10546875 0.26953125,0.10546875 H 4.2411641 c 1.5703125,0 2.7539062,-1.17187496 2.7539062,-2.15625026 z m -0.375,-3.3164063 c 0,0.8789063 -0.8554687,1.828125 -2.0742187,1.828125 h -1.453125 l 0.6210937,-2.4726562 c 0.09375,-0.3515625 0.1054688,-0.375 0.5390625,-0.375 h 1.2890625 c 0.8671875,0 1.078125,0.5859375 1.078125,1.0195312 z m -0.5507812,3.2109375 c 0,0.984375 -0.890625,1.95703126 -2.0625,1.95703126 h -1.359375 c -0.140625,0 -0.1523438,0 -0.2226563,-0.0117188 -0.09375,-0.0117188 -0.1289062,-0.0234375 -0.1289062,-0.10546875 0,-0.0234375 0,-0.046875 0.058594,-0.22265625 L 3.0341328,-3.4207109 h 1.8867188 c 0.9609375,0 1.1484375,0.7265625 1.1484375,1.1601562 z m 0,0"
       style="fill:#1c2024;fill-opacity:1;fill-rule:nonzero;stroke:none"
       aria-label="B"
       transform="matrix(1.3333333,0,0,1.3333333,154.16933,135.32267)" />
    <path
       id="path27"
       d="m 6.4460234,-2.3893906 c 0,-0.1054688 -0.1171875,-0.1054688 -0.1171875,-0.1054688 -0.058594,0 -0.1171875,0.023437 -0.1289062,0.1054688 -0.09375,0.2929687 -0.3164063,0.9960937 -1.0078125,1.57031248 -0.6914063,0.5625 -1.3125,0.7265625 -1.8398438,0.7265625 -0.890625,0 -1.9453125,-0.515625 -1.9453125,-2.06249998 0,-0.5742188 0.2109375,-2.1914063 1.2070313,-3.3515625 0.609375,-0.703125 1.5351562,-1.2070313 2.4257812,-1.2070313 1.0195313,0 1.6054688,0.7734375 1.6054688,1.921875 0,0.3984375 -0.035156,0.4101563 -0.035156,0.5039063 0,0.1054687 0.1171875,0.1054687 0.1523438,0.1054687 0.1289062,0 0.1289062,-0.023437 0.1757812,-0.1992187 l 0.6328125,-2.5429688 c 0,-0.023437 -0.023437,-0.09375 -0.1054687,-0.09375 -0.035156,0 -0.046875,0.011719 -0.1523438,0.1171875 l -0.703125,0.7617188 c -0.082031,-0.140625 -0.5390625,-0.8789063 -1.6523437,-0.8789063 -2.2148438,0 -4.45312501,2.203125 -4.45312501,4.5117188 0,1.64062498 1.17187501,2.73046873 2.69531251,2.73046873 0.8671875,0 1.6171875,-0.3984375 2.1445312,-0.85546875 0.9375,-0.82031248 1.1015625,-1.72265628 1.1015622,-1.75781248 z m 0,0"
       style="fill:#1c2024;fill-opacity:1;fill-rule:nonzero;stroke:none"
       aria-label="C"
       transform="matrix(1.3333333,0,0,1.3333333,209.73733,43.318667)" />
    <path
       id="path28"
       d="m 8.0043516,-4.2878281 c 0,-1.3945313 -0.84375,-2.5195313 -2.3320313,-2.5195313 H 2.3207578 c -0.1875,0 -0.2929687,0 -0.2929687,0.1992188 0,0.1171875 0.082031,0.1171875 0.28125,0.1171875 0.1289062,0 0.3164062,0.011719 0.4335937,0.011719 0.1523438,0.023437 0.2109375,0.058594 0.2109375,0.1640625 0,0.035156 0,0.070312 -0.035156,0.1875 l -1.3359375,5.35546878 c -0.09375,0.38671875 -0.1171875,0.46875 -0.90234379,0.46875 -0.17578125,0 -0.28125,0 -0.28125,0.1875 0,0.1171875 0.09375,0.1171875 0.28125,0.1171875 H 3.9731016 c 2.0742187,0 4.03125,-2.09765628 4.03125,-4.28906278 z M 7.1371641,-4.6511094 c 0,0.4921875 -0.1992188,2.1210938 -1.0429688,3.2226563 -0.28125,0.3632812 -1.078125,1.12499998 -2.296875,1.12499998 h -1.125 c -0.140625,0 -0.1640625,0 -0.2226562,-0.0117188 -0.09375,-0.0117188 -0.1289063,-0.0234375 -0.1289063,-0.10546875 0,-0.0234375 0,-0.046875 0.046875,-0.22265625 L 3.7387266,-6.1159531 c 0.082031,-0.3515625 0.1054687,-0.375 0.5390625,-0.375 h 1.0664062 c 0.9726563,0 1.7929688,0.5273437 1.7929688,1.8398437 z m 0,0"
       style="fill:#1c2024;fill-opacity:1;fill-rule:nonzero;stroke:none"
       aria-label="D"
       transform="matrix(1.3333333,0,0,1.3333333,277.308,43.318667)" />
    <g
       id="g28"
       aria-label="A∩B"
       transform="matrix(1.3333333,0,0,1.3333333,334.05733,155.148)">
      <path
         id="path29"
         d="m 7.1845391,-0.19889062 c 0,-0.10546875 -0.1054688,-0.10546875 -0.234375,-0.10546875 -0.609375,0 -0.609375,-0.0703125 -0.6445313,-0.36328125 L 5.6962578,-6.8902969 c -0.011719,-0.1992187 -0.011719,-0.2460937 -0.1875,-0.2460937 -0.1640625,0 -0.1992187,0.070312 -0.2578125,0.1757812 l -3.46875,5.8125 c -0.3984375,0.66796878 -0.78515624,0.80859378 -1.21874999,0.84375003 -0.12890625,0 -0.2109375,0 -0.2109375,0.19921875 0,0.05859375 0.046875,0.105468745 0.12890625,0.105468745 0.26953125,0 0.57421874,-0.035156245 0.85546874,-0.035156245 0.328125,0 0.6796875,0.035156245 0.9960938,0.035156245 0.058594,0 0.1875,0 0.1875,-0.187499995 0,-0.1171875 -0.09375,-0.1171875 -0.1640625,-0.1171875 -0.2226563,-0.0234375 -0.4570313,-0.10546875 -0.4570313,-0.3515625 0,-0.1171875 0.058594,-0.234375 0.1289063,-0.37500003 0.070312,-0.1171875 0.082031,-0.1171875 0.7617187,-1.265625 h 2.4960938 c 0.023437,0.1992188 0.1640625,1.55859378 0.1640625,1.66406253 0,0.29296875 -0.515625,0.328125 -0.7148438,0.328125 -0.140625,0 -0.2460937,0 -0.2460937,0.19921875 0,0.105468745 0.140625,0.105468745 0.140625,0.105468745 0.4101562,0 0.84375,-0.035156245 1.2539062,-0.035156245 0.2460938,0 0.8671875,0.035156245 1.125,0.035156245 0.058594,0 0.1757813,0 0.1757813,-0.199218745 z M 5.2626641,-2.6129531 H 2.9775078 l 1.96875,-3.28125 z m 0,0"
         style="fill:#107d98;fill-opacity:1;fill-rule:nonzero;stroke:none" />
      <path
         id="path30"
         d="m 14.368133,-3.2692031 v 2.89453123 c 0,0.1171875 0.09375,0.22265625 0.222656,0.22265625 0.128906,0 0.234375,-0.10546875 0.234375,-0.22265625 V -3.2692031 c 0,-1.0195313 -1.066406,-1.6757813 -2.402344,-1.6757813 -1.101562,0 -2.390625,0.515625 -2.390625,1.6757813 v 2.89453123 c 0,0.1171875 0.105469,0.22265625 0.234375,0.22265625 0.128907,0 0.222657,-0.10546875 0.222657,-0.22265625 V -3.2692031 c 0,-0.7734375 0.925781,-1.21875 1.933593,-1.21875 1.054688,0 1.945313,0.46875 1.945313,1.21875 z m 0,0"
         style="fill:#107d98;fill-opacity:1;fill-rule:nonzero;stroke:none" />
      <path
         id="path31"
         d="m 24.390594,-2.1559219 c 0,-0.7148437 -0.585938,-1.2890625 -1.546875,-1.3945312 1.03125,-0.1992188 2.085937,-0.9375 2.085937,-1.875 0,-0.7382813 -0.65625,-1.3828125 -1.851562,-1.3828125 h -3.351563 c -0.1875,0 -0.292969,0 -0.292969,0.1992187 0,0.1171875 0.09375,0.1171875 0.28125,0.1171875 0,0 0.210938,0 0.375,0.011719 0.1875,0.023437 0.269532,0.035156 0.269532,0.1640625 0,0.035156 -0.01172,0.070312 -0.03516,0.1875 l -1.335937,5.35546873 c -0.09375,0.38671875 -0.117188,0.46875 -0.902344,0.46875 -0.175781,0 -0.269531,0 -0.269531,0.19921875 0,0.105468745 0.08203,0.105468745 0.269531,0.105468745 h 3.550781 c 1.570313,0 2.753907,-1.171875025 2.753907,-2.156250025 z m -0.375,-3.3164062 c 0,0.8789062 -0.855469,1.828125 -2.074219,1.828125 H 20.48825 l 0.621094,-2.4726563 c 0.09375,-0.3515625 0.105468,-0.375 0.539062,-0.375 h 1.289063 c 0.867187,0 1.078125,0.5859375 1.078125,1.0195313 z m -0.550782,3.2109375 c 0,0.984375 -0.890625,1.95703123 -2.0625,1.95703123 h -1.359375 c -0.140625,0 -0.152343,0 -0.222656,-0.0117188 -0.09375,-0.0117188 -0.128906,-0.0234375 -0.128906,-0.10546875 0,-0.0234375 0,-0.046875 0.05859,-0.22265625 L 20.429652,-3.421547 h 1.886719 c 0.960937,0 1.148437,0.7265625 1.148437,1.1601563 z m 0,0"
         style="fill:#107d98;fill-opacity:1;fill-rule:nonzero;stroke:none" />
    </g>
    <g
       id="g31"
       aria-label="C∪D"
       transform="matrix(1.3333333,0,0,1.3333333,242.79467,155.148)">
      <path
         id="path32"
         d="m 6.4440391,-2.3902969 c 0,-0.1054687 -0.1171875,-0.1054687 -0.1171875,-0.1054687 -0.058594,0 -0.1171875,0.023437 -0.1289063,0.1054687 -0.09375,0.2929688 -0.3164062,0.9960938 -1.0078125,1.57031253 -0.6914062,0.5625 -1.3125,0.7265625 -1.8398437,0.7265625 -0.890625,0 -1.9453125,-0.515625 -1.9453125,-2.06250003 0,-0.5742187 0.2109375,-2.1914062 1.2070312,-3.3515625 0.609375,-0.703125 1.5351563,-1.2070312 2.4257813,-1.2070312 1.0195312,0 1.6054687,0.7734375 1.6054687,1.921875 0,0.3984375 -0.035156,0.4101562 -0.035156,0.5039062 0,0.1054688 0.1171875,0.1054688 0.1523437,0.1054688 0.1289063,0 0.1289063,-0.023437 0.1757813,-0.1992188 l 0.6328125,-2.5429687 c 0,-0.023437 -0.023437,-0.09375 -0.1054688,-0.09375 -0.035156,0 -0.046875,0.011719 -0.1523437,0.1171875 l -0.703125,0.7617187 c -0.082031,-0.140625 -0.5390625,-0.8789062 -1.6523438,-0.8789062 -2.2148437,0 -4.45312499,2.203125 -4.45312499,4.5117187 0,1.64062503 1.17187499,2.73046878 2.69531249,2.73046878 0.8671875,0 1.6171875,-0.3984375 2.1445313,-0.85546875 0.9375,-0.82031253 1.1015625,-1.72265623 1.1015623,-1.75781253 z m 0,0"
         style="fill:#5753c6;fill-opacity:1;fill-rule:nonzero;stroke:none" />
      <path
         id="path33"
         d="m 10.856148,-1.8277969 v -2.8828125 c 0,-0.1171875 -0.09375,-0.234375 -0.222656,-0.234375 -0.128906,0 -0.234375,0.1171875 -0.234375,0.234375 v 2.8828125 c 0,1.03125003 1.066406,1.67578128 2.390625,1.67578128 1.113281,0 2.402344,-0.50390625 2.402344,-1.67578128 v -2.8828125 c 0,-0.1171875 -0.105469,-0.234375 -0.234375,-0.234375 -0.128906,0 -0.222656,0.1171875 -0.222656,0.234375 v 2.8828125 c 0,0.7851563 -0.9375,1.21875003 -1.945313,1.21875003 -1.042969,0 -1.933594,-0.45703123 -1.933594,-1.21875003 z m 0,0"
         style="fill:#5753c6;fill-opacity:1;fill-rule:nonzero;stroke:none" />
      <path
         id="path34"
         d="m 25.753609,-4.2887344 c 0,-1.3945312 -0.84375,-2.5195312 -2.332031,-2.5195312 h -3.351562 c -0.1875,0 -0.292969,0 -0.292969,0.1992187 0,0.1171875 0.08203,0.1171875 0.28125,0.1171875 0.128906,0 0.316406,0.011719 0.433594,0.011719 0.152343,0.023437 0.210937,0.058594 0.210937,0.1640625 0,0.035156 0,0.070312 -0.03516,0.1875 l -1.335938,5.35546873 c -0.09375,0.38671875 -0.117187,0.46875 -0.902343,0.46875 -0.175782,0 -0.28125,0 -0.28125,0.1875 0,0.117187495 0.09375,0.117187495 0.28125,0.117187495 h 3.292968 c 2.074219,0 4.03125,-2.097656225 4.03125,-4.289062525 z m -0.867187,-0.3632812 c 0,0.4921875 -0.199219,2.1210937 -1.042969,3.2226562 -0.28125,0.3632813 -1.078125,1.12500003 -2.296875,1.12500003 h -1.125 c -0.140625,0 -0.164062,0 -0.222656,-0.0117188 -0.09375,-0.0117188 -0.128906,-0.0234375 -0.128906,-0.10546875 0,-0.0234375 0,-0.046875 0.04687,-0.22265625 l 1.371093,-5.47265623 c 0.08203,-0.3515625 0.105469,-0.375 0.539063,-0.375 h 1.066406 c 0.972656,0 1.792969,0.5273438 1.792969,1.8398438 z m 0,0"
         style="fill:#5753c6;fill-opacity:1;fill-rule:nonzero;stroke:none" />
    </g>
  </g>
</svg>
